<svg xmlns="http://www.w3.org/2000/svg" width="87.743" height="88.163" viewBox="0 0 87.743 88.163">
  <path id="Path_1" data-name="Path 1" d="M123.165,17.262c2.53-3.662,5.248-7.443,9.116-9.788,3.814,2.286,6.5,6,9,9.6,5.875,8.9,9.467,19.589,8.743,30.332,1.9,1.592,3.852,3.12,5.723,4.744a10.983,10.983,0,0,1,3.292,9.9c-.9,4.521-1.767,9.052-2.72,13.561a3.572,3.572,0,0,1-5.513,1.9c-3.062-2.556-6.049-5.207-9.11-7.766a13.255,13.255,0,0,1-18.721.095c-2.2,1.682-4.233,3.7-6.379,5.5a16.476,16.476,0,0,1-3.127,2.5,3.594,3.594,0,0,1-4.784-2.448c-.98-4.408-2-8.808-2.955-13.222a10.953,10.953,0,0,1,3.473-10.3c1.666-1.4,3.355-2.77,5.052-4.131.473-.249.235-.822.262-1.243C114.009,36.118,117.55,25.872,123.165,17.262Zm3.006,13.653a7.633,7.633,0,1,0,6.891-3.026A7.649,7.649,0,0,0,126.171,30.915Z" transform="matrix(0.719, 0.695, -0.695, 0.719, -21.587, -78.673)" fill="#fff"/>
</svg>
