<svg xmlns="http://www.w3.org/2000/svg" width="87.743" height="88.169" viewBox="0 0 87.743 88.169">
  <g id="Group_9" data-name="Group 9" transform="translate(-803.257 0)">
    <g id="rocket" transform="matrix(0.719, 0.695, -0.695, 0.719, 857.507, 0)">
      <g id="Group_4" data-name="Group 4" transform="translate(0 0)">
        <path id="Path_2" data-name="Path 2" d="M198.227,399.814a1.8,1.8,0,0,1,2.673-1.506,16.646,16.646,0,0,0,15.006,0,1.8,1.8,0,0,1,2.675,1.4q.023,4.14,0,8.285a1.788,1.788,0,0,1-2.8,1.364c-.8-.7-1.514-1.492-2.281-2.229-1.212,2.361-2.354,4.758-3.576,7.114a1.779,1.779,0,0,1-3.019.019c-1.229-2.36-2.363-4.772-3.6-7.129-.755.744-1.475,1.529-2.271,2.23a1.792,1.792,0,0,1-2.8-1.368C198.209,405.265,198.224,402.539,198.227,399.814Z" transform="translate(-181.637 -328.205)" fill="#fff"/>
      </g>
      <circle id="Ellipse_12" data-name="Ellipse 12" cx="3.723" cy="3.723" r="3.723" transform="translate(22.985 24.366)" fill="#fff"/>
    </g>
    <path id="Path_1" data-name="Path 1" d="M123.165,17.262c2.53-3.662,5.248-7.443,9.116-9.788,3.814,2.286,6.5,6,9,9.6,5.875,8.9,9.467,19.589,8.743,30.332,1.9,1.592,3.852,3.12,5.723,4.744a10.983,10.983,0,0,1,3.292,9.9c-.9,4.521-1.767,9.052-2.72,13.561a3.572,3.572,0,0,1-5.513,1.9c-3.062-2.556-6.049-5.207-9.11-7.766a13.255,13.255,0,0,1-18.721.095c-2.2,1.682-4.233,3.7-6.379,5.5a16.476,16.476,0,0,1-3.127,2.5,3.594,3.594,0,0,1-4.784-2.448c-.98-4.408-2-8.808-2.955-13.222a10.953,10.953,0,0,1,3.473-10.3c1.666-1.4,3.355-2.77,5.052-4.131.473-.249.235-.822.262-1.243C114.009,36.118,117.55,25.872,123.165,17.262Zm3.006,13.653a7.633,7.633,0,1,0,6.891-3.026A7.649,7.649,0,0,0,126.171,30.915Z" transform="matrix(0.719, 0.695, -0.695, 0.719, 781.669, -78.673)" fill="#fff"/>
  </g>
</svg>
